<?xml version="1.0" encoding="UTF-8"?>
<svg id="Layer_2" data-name="Layer 2" xmlns="http://www.w3.org/2000/svg" viewBox="0 0 50 84.9">
  <defs>
    <style>
      .cls-1 {
        fill: #adadad;
        stroke-width: 0px;
      }
    </style>
  </defs>
  <g id="Layer_2-2" data-name="Layer 2">
    <path class="cls-1" d="m48.46,59.28c-1.03-2.08-2.4-3.84-4.11-5.26-1.71-1.42-3.58-2.62-5.62-3.62,0-.26.02-.52.02-.78,0-3.01-.51-5.56-1.54-7.64-1.03-2.08-2.4-3.84-4.11-5.26-1.72-1.43-3.6-2.64-5.65-3.63-2.05-.99-4.12-1.92-6.2-2.79-1.42-.6-2.79-1.2-4.15-1.81.53-1.69,1.48-3.25,2.85-4.68,2.24-2.34,5.69-3.51,10.34-3.51,2.4,0,4.72.52,6.95,1.56,1.28.6,2.67,1.49,4.18,2.66l5.26,13.14,1.15-.19-3.12-20.14h-.43l-2.55,3.72c-1.3-.6-2.61-1.11-3.94-1.53-.43-.14-.89-.25-1.36-.36L33.46,0h-.43l-2.55,3.72c-1.3-.6-2.61-1.11-3.94-1.53-1.99-.63-4.34-.94-7.07-.94-3.49,0-6.51.62-9.04,1.85-2.53,1.23-4.48,2.96-5.84,5.17-1.36,2.21-2.04,4.76-2.04,7.64,0,2.53.41,4.72,1.23,6.56.82,1.84,1.94,3.42,3.37,4.74,1.43,1.31,3.07,2.48,4.93,3.49.59.32,1.2.62,1.81.93-.05.52-.08,1.05-.08,1.59,0,2.53.41,4.72,1.23,6.56.82,1.84,1.94,3.42,3.37,4.74,1.43,1.31,3.07,2.48,4.93,3.49,1.86,1.01,3.81,1.96,5.87,2.86,2.08.9,4.17,1.81,6.27,2.74.09.04.17.08.25.12-.3,2.29-1.03,4.23-2.2,5.82-1.57,2.13-3.73,3.69-6.47,4.69-2.74.99-5.87,1.49-9.4,1.49-2.15,0-4.32-.2-6.51-.6-1.01-.18-2.02-.47-3.02-.84l-6.71-14.86H0l3.51,16.01c2.28.8,4.51,1.36,6.71,1.68.37.05.76.1,1.15.14l3.39,15.48c2.28.8,4.51,1.36,6.71,1.68,2.2.32,4.7.48,7.52.48,4.23,0,7.92-.67,11.06-2,3.14-1.33,5.58-3.32,7.33-5.99,1.75-2.66,2.62-5.99,2.62-10,0-3.01-.51-5.56-1.54-7.64ZM10.19,24.59c-1.51-1.17-2.69-2.56-3.56-4.16-.87-1.6-1.3-3.56-1.3-5.87,0-3.04,1.12-5.74,3.37-8.08,2.24-2.34,5.69-3.51,10.34-3.51,2.4,0,4.72.52,6.95,1.56,1.28.6,2.67,1.49,4.18,2.66l4.66,11.64c-1.27-.19-2.63-.29-4.11-.29-3.49,0-6.51.62-9.04,1.85-2.53,1.23-4.48,2.96-5.84,5.17-.37.6-.69,1.23-.96,1.88-1.73-.83-3.3-1.79-4.69-2.87Zm22.31,23c-2.05-.87-4.03-1.74-5.94-2.62-1.91-.88-3.61-1.91-5.12-3.08-1.51-1.17-2.69-2.56-3.56-4.16-.73-1.35-1.14-2.94-1.26-4.79.44.2.86.41,1.31.6,2.08.9,4.17,1.81,6.27,2.74,2.1.93,4.03,2.03,5.79,3.29,1.76,1.27,3.18,2.84,4.25,4.71.77,1.34,1.25,2.91,1.47,4.69-1.07-.48-2.15-.95-3.23-1.4Zm12.26,29.25c-1.57,2.13-3.73,3.69-6.47,4.69-2.74.99-5.87,1.49-9.4,1.49-2.15,0-4.32-.2-6.51-.6-1.01-.18-2.02-.47-3.02-.84l-6.4-14.18c1.49.12,3.07.19,4.79.19,4.23,0,7.92-.67,11.06-2,3.14-1.33,5.58-3.32,7.33-5.99.9-1.38,1.57-2.94,2.01-4.67,1.09.6,2.13,1.25,3.12,1.96,1.76,1.27,3.18,2.84,4.25,4.71,1.07,1.88,1.61,4.19,1.61,6.95,0,3.4-.79,6.16-2.36,8.29Z"/>
  </g>
</svg>