<?xml version="1.0" encoding="UTF-8"?>
<svg id="Layer_2" data-name="Layer 2" xmlns="http://www.w3.org/2000/svg" viewBox="0 0 52.24 86.9">
  <defs>
    <style>
      .cls-1 {
        fill: #adadad;
        stroke-width: 0px;
      }
    </style>
  </defs>
  <g id="Layer_2-2" data-name="Layer 2">
    <path class="cls-1" d="m50.6,59.84c-1.08-2.2-2.55-4.08-4.37-5.59-1.6-1.33-3.36-2.49-5.24-3.46,0-.06,0-.12,0-.17,0-3.15-.55-5.87-1.64-8.08-1.08-2.2-2.55-4.08-4.37-5.59-1.77-1.47-3.74-2.74-5.85-3.76-2.06-1-4.17-1.94-6.25-2.81-1.12-.47-2.21-.95-3.28-1.42.52-1.23,1.29-2.39,2.31-3.45,2.04-2.12,5.27-3.2,9.61-3.2,2.24,0,4.44.49,6.52,1.47,1.13.53,2.4,1.33,3.78,2.38l5.46,13.63,2.92-.49-3.41-21.97h-1.82l-2.38,3.46c-1.11-.48-2.21-.89-3.29-1.23-.25-.08-.51-.15-.77-.22L35.56,0h-1.82l-2.38,3.46c-1.11-.48-2.21-.89-3.29-1.23-2.08-.65-4.55-.98-7.37-.98-3.63,0-6.82.66-9.48,1.95-2.69,1.31-4.8,3.18-6.25,5.54-1.45,2.36-2.19,5.11-2.19,8.17,0,2.66.44,5.01,1.31,6.97.87,1.96,2.08,3.67,3.6,5.07,1.48,1.36,3.2,2.58,5.13,3.63.4.22.82.43,1.24.64-.02.35-.03.68-.03,1,0,2.66.44,5.01,1.31,6.97.87,1.96,2.08,3.67,3.6,5.07,1.48,1.36,3.2,2.58,5.13,3.63,1.88,1.02,3.88,2,5.95,2.9,1.93.83,3.87,1.68,5.82,2.54-.33,1.8-.96,3.35-1.9,4.63-1.44,1.96-3.46,3.42-6,4.34-2.62.95-5.67,1.43-9.06,1.43-2.08,0-4.21-.2-6.33-.58-.81-.15-1.64-.37-2.47-.65l-6.8-15.06H0l3.9,17.77.53.19c2.32.82,4.64,1.4,6.9,1.73.15.02.31.04.47.06l3.36,15.33.53.19c2.32.82,4.64,1.4,6.89,1.73,2.23.33,4.81.49,7.67.49,4.34,0,8.2-.7,11.45-2.07,3.31-1.4,5.93-3.54,7.78-6.36,1.85-2.81,2.78-6.36,2.78-10.55,0-3.15-.55-5.87-1.64-8.08Zm-8.69-1.13c1.64,1.18,2.97,2.65,3.97,4.4.98,1.71,1.48,3.88,1.48,6.45,0,3.16-.73,5.75-2.16,7.7-1.44,1.96-3.46,3.42-6,4.34-2.62.95-5.67,1.43-9.06,1.43-2.08,0-4.21-.2-6.34-.58-.81-.15-1.63-.37-2.47-.65l-5.54-12.28c1.04.05,2.11.08,3.19.08,4.35,0,8.2-.7,11.45-2.07,3.31-1.4,5.93-3.54,7.78-6.36.73-1.12,1.33-2.36,1.77-3.72.68.41,1.33.83,1.93,1.27Zm-7.78-11.04c-2.03-.86-4.02-1.73-5.91-2.6-1.83-.85-3.49-1.84-4.93-2.96-1.39-1.08-2.5-2.37-3.29-3.84-.42-.78-.73-1.67-.92-2.66,1.98.85,3.97,1.72,5.96,2.61,2.03.9,3.92,1.97,5.61,3.19,1.64,1.18,2.97,2.66,3.97,4.4.43.75.76,1.59,1.01,2.51-.5-.22-1-.43-1.51-.64Zm-17.9-21.62c-.21.33-.4.68-.58,1.05-1.33-.7-2.54-1.47-3.6-2.3-1.39-1.08-2.5-2.37-3.29-3.84-.78-1.45-1.18-3.26-1.18-5.39,0-2.8,1.01-5.22,3.09-7.38,2.04-2.12,5.27-3.2,9.61-3.2,2.24,0,4.44.49,6.52,1.47,1.13.53,2.4,1.33,3.78,2.38l3.94,9.83c-.83-.07-1.69-.1-2.56-.1-3.63,0-6.82.66-9.48,1.95-2.69,1.31-4.8,3.18-6.26,5.54Z"/>
  </g>
</svg>