<?xml version="1.0" encoding="UTF-8"?>
<svg id="Layer_2" data-name="Layer 2" xmlns="http://www.w3.org/2000/svg" viewBox="0 0 99.32 142.32">
  <defs>
    <style>
      .cls-1 {
        fill: #344e41;
      }

      .cls-1, .cls-2 {
        stroke-width: 0px;
      }

      .cls-2 {
        fill: #dad7cd;
      }
    </style>
  </defs>
  <g id="Layer_2-2" data-name="Layer 2">
    <g>
      <path class="cls-1" d="m68.79.85c-1.91-.17-3.71-.3-5.41-.41-1.7-.11-3.32-.19-4.87-.26-1.55-.06-3.05-.11-4.51-.14-1.47-.03-2.9-.04-4.34-.04s-2.87.01-4.33.04-2.96.07-4.51.14c-1.55.06-3.17.15-4.87.26-1.7.11-3.5.24-5.41.41-1.25,1.38-2.45,2.7-3.59,3.95s-2.24,2.45-3.3,3.6c-1.06,1.15-2.09,2.26-3.09,3.35-1.01,1.09-1.99,2.14-2.97,3.19-.98,1.05-1.96,2.09-2.94,3.14-.99,1.05-1.98,2.1-3.01,3.18s-2.08,2.18-3.17,3.32c-1.1,1.14-2.23,2.32-3.43,3.56-1.2,1.23-2.46,2.52-3.79,3.88-.12,1.96-.23,3.85-.33,5.69s-.18,3.63-.26,5.37c-.08,1.74-.15,3.44-.21,5.1-.06,1.66-.11,3.28-.16,4.87s-.08,3.15-.12,4.69c-.03,1.54-.06,3.05-.08,4.55-.02,1.5-.04,2.98-.05,4.46-.01,1.48-.02,2.94-.02,4.41s0,2.94.02,4.41.03,2.96.05,4.46c.02,1.5.05,3.01.08,4.55.03,1.54.07,3.1.12,4.69s.1,3.21.16,4.87c.06,1.66.13,3.36.21,5.1.08,1.74.16,3.53.26,5.37.1,1.84.21,3.74.33,5.69,1.34,1.36,2.6,2.64,3.79,3.88s2.34,2.41,3.43,3.56c1.1,1.14,2.15,2.24,3.17,3.32s2.02,2.13,3.01,3.18c.99,1.05,1.96,2.09,2.94,3.14.98,1.05,1.97,2.11,2.97,3.19s2.03,2.2,3.09,3.35c1.06,1.15,2.16,2.35,3.3,3.6,1.14,1.25,2.34,2.57,3.59,3.95,1.91.17,3.71.3,5.41.41s3.32.19,4.87.26c1.55.06,3.05.11,4.51.14s2.9.04,4.33.04,2.87-.01,4.34-.04c1.46-.03,2.96-.07,4.51-.14,1.55-.06,3.17-.15,4.87-.26,1.7-.11,3.5-.24,5.41-.41,1.25-1.38,2.45-2.7,3.59-3.95s2.24-2.45,3.3-3.6c1.06-1.15,2.09-2.26,3.09-3.35s1.99-2.14,2.97-3.19c.98-1.05,1.96-2.09,2.94-3.14.99-1.05,1.98-2.1,3.01-3.18,1.02-1.08,2.08-2.18,3.17-3.32,1.1-1.14,2.23-2.32,3.43-3.56s2.46-2.52,3.79-3.88c.12-1.96.23-3.85.33-5.69.1-1.84.18-3.63.26-5.37s.15-3.44.21-5.1c.06-1.66.11-3.28.16-4.87.05-1.59.08-3.15.12-4.69s.06-3.05.08-4.55c.02-1.5.04-2.98.05-4.46.01-1.48.02-2.94.02-4.41,0-1.47,0-2.94-.02-4.41-.01-1.48-.03-2.96-.05-4.46-.02-1.5-.05-3.01-.08-4.55-.03-1.54-.07-3.1-.12-4.69s-.1-3.21-.16-4.87c-.06-1.66-.13-3.36-.21-5.1-.08-1.74-.16-3.53-.26-5.37s-.21-3.74-.33-5.69c-1.34-1.36-2.6-2.64-3.79-3.88s-2.34-2.41-3.43-3.56c-1.1-1.14-2.15-2.24-3.17-3.32s-2.02-2.13-3.01-3.18c-.99-1.05-1.96-2.09-2.94-3.14s-1.97-2.11-2.97-3.19-2.03-2.2-3.09-3.35-2.16-2.35-3.3-3.6-2.34-2.57-3.59-3.95Z"/>
      <path class="cls-2" d="m73.12,87.99c-1.03-2.08-2.4-3.84-4.11-5.26-1.71-1.42-3.58-2.62-5.62-3.62,0-.26.02-.52.02-.78,0-3.01-.51-5.56-1.54-7.64-1.03-2.08-2.4-3.84-4.11-5.26-1.72-1.43-3.6-2.64-5.65-3.63-2.05-.99-4.12-1.92-6.2-2.79-1.42-.6-2.79-1.2-4.15-1.81.53-1.69,1.48-3.25,2.85-4.68,2.24-2.34,5.69-3.51,10.34-3.51,2.4,0,4.72.52,6.95,1.56,1.28.6,2.67,1.49,4.18,2.66l5.26,13.14,1.15-.19-3.12-20.14h-.43l-2.55,3.72c-1.3-.6-2.61-1.11-3.94-1.53-.43-.14-.89-.25-1.36-.36l-2.97-19.14h-.43l-2.55,3.72c-1.3-.6-2.61-1.11-3.94-1.53-1.99-.63-4.34-.94-7.07-.94-3.49,0-6.51.62-9.04,1.85-2.53,1.23-4.48,2.96-5.84,5.17-1.36,2.21-2.04,4.76-2.04,7.64,0,2.53.41,4.72,1.23,6.56.82,1.84,1.94,3.42,3.37,4.74,1.43,1.31,3.07,2.48,4.93,3.49.59.32,1.2.62,1.81.93-.05.52-.08,1.05-.08,1.59,0,2.53.41,4.72,1.23,6.56.82,1.84,1.94,3.42,3.37,4.74,1.43,1.31,3.07,2.48,4.93,3.49,1.86,1.01,3.81,1.96,5.87,2.86,2.08.9,4.17,1.81,6.27,2.74.09.04.17.08.25.12-.3,2.29-1.03,4.23-2.2,5.82-1.57,2.13-3.73,3.69-6.47,4.69-2.74.99-5.87,1.49-9.4,1.49-2.15,0-4.32-.2-6.51-.6-1.01-.18-2.02-.47-3.02-.84l-6.71-14.86h-1.39l3.51,16.01c2.28.8,4.51,1.36,6.71,1.68.37.05.76.1,1.15.14l3.39,15.48c2.28.8,4.51,1.36,6.71,1.68,2.2.32,4.7.48,7.52.48,4.23,0,7.92-.67,11.06-2,3.14-1.33,5.58-3.32,7.33-5.99,1.75-2.66,2.62-5.99,2.62-10,0-3.01-.51-5.56-1.54-7.64Zm-38.27-34.69c-1.51-1.17-2.69-2.56-3.56-4.16-.87-1.6-1.3-3.56-1.3-5.87,0-3.04,1.12-5.74,3.37-8.08,2.24-2.34,5.69-3.51,10.34-3.51,2.4,0,4.72.52,6.95,1.56,1.28.6,2.67,1.49,4.18,2.66l4.66,11.64c-1.27-.19-2.63-.29-4.11-.29-3.49,0-6.51.62-9.04,1.85-2.53,1.23-4.48,2.96-5.84,5.17-.37.6-.69,1.23-.96,1.88-1.73-.83-3.3-1.79-4.69-2.87Zm22.31,23c-2.05-.87-4.03-1.74-5.94-2.62-1.91-.88-3.61-1.91-5.12-3.08-1.51-1.17-2.69-2.56-3.56-4.16-.73-1.35-1.14-2.94-1.26-4.79.44.2.86.41,1.31.6,2.08.9,4.17,1.81,6.27,2.74,2.1.93,4.03,2.03,5.79,3.29,1.76,1.27,3.18,2.84,4.25,4.71.77,1.34,1.25,2.91,1.47,4.69-1.07-.48-2.15-.95-3.23-1.4Zm12.26,29.25c-1.57,2.13-3.73,3.69-6.47,4.69-2.74.99-5.87,1.49-9.4,1.49-2.15,0-4.32-.2-6.51-.6-1.01-.18-2.02-.47-3.02-.84l-6.4-14.18c1.49.12,3.07.19,4.79.19,4.23,0,7.92-.67,11.06-2,3.14-1.33,5.58-3.32,7.33-5.99.9-1.38,1.57-2.94,2.01-4.67,1.09.6,2.13,1.25,3.12,1.96,1.76,1.27,3.18,2.84,4.25,4.71,1.07,1.88,1.61,4.19,1.61,6.95,0,3.4-.79,6.16-2.36,8.29Z"/>
    </g>
  </g>
</svg>